<svg width="47" height="64" viewBox="0 0 47 64" fill="none" xmlns="http://www.w3.org/2000/svg">
<path d="M27.0012 56.7969H27.4903C32.4535 56.7969 37.4171 56.7969 42.3811 56.7969C43.1031 56.7492 43.8224 56.9247 44.4419 57.2996C45.0614 57.6746 45.5513 58.231 45.8456 58.8939C46.0943 59.4328 46.206 60.0252 46.1709 60.618C46.1357 61.2108 45.9548 61.7857 45.6441 62.2913C45.3335 62.797 44.9029 63.2176 44.3907 63.5158C43.8785 63.8139 43.3006 63.9803 42.7087 64H42.6634C29.6265 64 16.5892 64 3.5515 64C2.61718 63.9915 1.72312 63.6174 1.05982 62.9575C0.396514 62.2977 0.0164262 61.4041 0.00052001 60.4674C-0.0153862 59.5306 0.334155 58.6246 0.974671 57.9425C1.61519 57.2603 2.49603 56.856 3.42952 56.8156C4.31597 56.7759 5.2059 56.7981 6.09467 56.7981H19.1289V39.7008H15.3379V53.6701H7.67007V53.2659C7.67007 41.8094 7.67007 30.3538 7.67007 18.8989C7.62354 18.378 7.68349 17.8531 7.84623 17.3563C8.00898 16.8594 8.2711 16.4011 8.61657 16.0093C8.96204 15.6175 9.38359 15.3006 9.85543 15.0778C10.3273 14.855 10.8395 14.7311 11.3607 14.7136C11.882 14.6962 12.4013 14.7855 12.8869 14.9762C13.3725 15.167 13.8142 15.455 14.185 15.8228C14.5558 16.1906 14.8478 16.6303 15.0433 17.1152C15.2387 17.6001 15.3334 18.1198 15.3217 18.6426C15.3461 20.1315 15.3217 21.6215 15.3217 23.1103C15.3217 25.9995 15.3217 28.889 15.3217 31.7789V32.2449H19.1428V31.7626C19.1428 22.5469 19.1428 13.3307 19.1428 4.11413C19.0915 3.10087 19.4344 2.10719 20.0993 1.34245C20.7642 0.577705 21.6992 0.101621 22.7072 0.0144787C23.7153 -0.0726632 24.7177 0.235955 25.5033 0.875309C26.2889 1.51466 26.7964 2.43482 26.9187 3.44194C26.9497 3.72005 26.9644 3.99975 26.9629 4.27958C26.9629 13.4317 26.9629 22.5841 26.9629 31.737V32.2438H30.3484V31.7778C30.3484 27.4495 30.3484 23.1216 30.3484 18.7941C30.311 18.2741 30.3796 17.7519 30.5498 17.2593C30.72 16.7667 30.9884 16.314 31.3386 15.9286C31.6888 15.5433 32.1135 15.2334 32.5868 15.0178C33.0602 14.8022 33.5723 14.6854 34.0921 14.6745C34.6119 14.6635 35.1285 14.7587 35.6105 14.9543C36.0924 15.1498 36.5297 15.4416 36.8956 15.8119C37.2616 16.1822 37.5486 16.6233 37.7393 17.1083C37.9299 17.5934 38.0202 18.1122 38.0046 18.6333C38.0046 18.7603 38.0046 18.8873 38.0046 19.0154V53.6701H30.3623V39.6903H26.9931L27.0012 56.7969Z" fill="#FF5900"/>
</svg>
